<svg width="38" height="61" viewBox="0 0 38 61" fill="none" xmlns="http://www.w3.org/2000/svg">
<path d="M7.7482 38.1825L5.21487 58.4647H0V61H4.8982H33.1018H38V58.4647H32.7851L30.2518 38.1825H20.2667V28.0363L30.0289 32.7799L28.1517 20.9984L36.8993 12.4824L24.6392 10.5531L19.0013 0L13.3633 10.5531L1.10327 12.4824L9.85087 20.9984L7.97367 32.7799L17.7359 28.0363V38.1825H7.7482ZM6.498 14.2001L14.9999 12.8627L18.9987 5.37732L22.9976 12.8627L31.4995 14.2001L25.4397 20.0984L26.7583 28.3735L18.9987 24.6023L11.2391 28.3735L12.5577 20.0984L6.498 14.2001ZM30.2315 58.4647H7.76847L9.98513 40.7178H28.0149L30.2315 58.4647Z" fill="white"/>
<path d="M19 54.6619C21.7943 54.6619 24.0667 52.3877 24.0667 49.5913C24.0667 46.7949 21.7943 44.5208 19 44.5208C16.2057 44.5208 13.9333 46.7949 13.9333 49.5913C13.9333 52.3877 16.2057 54.6619 19 54.6619ZM19 47.056C20.3971 47.056 21.5333 48.1931 21.5333 49.5913C21.5333 50.9895 20.3971 52.1266 19 52.1266C17.6029 52.1266 16.4667 50.9895 16.4667 49.5913C16.4667 48.1931 17.6029 47.056 19 47.056Z" fill="white"/>
</svg>
