<svg width="58" height="58" viewBox="0 0 58 58" fill="none" xmlns="http://www.w3.org/2000/svg">
<path d="M7.25 50.7499C7.01224 50.756 6.77636 50.7063 6.56125 50.6049C6.23025 50.4689 5.94691 50.238 5.74693 49.9412C5.54695 49.6445 5.43929 49.2952 5.4375 48.9374V15.9136C5.46339 14.7496 5.71837 13.6021 6.18787 12.5366C6.65737 11.4712 7.3322 10.5087 8.17379 9.70415C9.01538 8.89959 10.0072 8.26873 11.0927 7.84761C12.1782 7.42649 13.336 7.22337 14.5 7.24985H43.5C44.664 7.22337 45.8218 7.42649 46.9073 7.84761C47.9928 8.26873 48.9846 8.89959 49.8262 9.70415C50.6678 10.5087 51.3426 11.4712 51.8121 12.5366C52.2816 13.6021 52.5366 14.7496 52.5625 15.9136V33.0236C52.5366 34.1876 52.2816 35.3351 51.8121 36.4006C51.3426 37.466 50.6678 38.4285 49.8262 39.2331C48.9846 40.0376 47.9928 40.6685 46.9073 41.0896C45.8218 41.5107 44.664 41.7138 43.5 41.6874H17.0556L8.53688 50.2242C8.36751 50.3922 8.16666 50.5251 7.94583 50.6153C7.725 50.7055 7.48854 50.7512 7.25 50.7499ZM14.5 10.8749C13.1118 10.8258 11.7606 11.3283 10.7417 12.2724C9.72283 13.2166 9.11911 14.5257 9.0625 15.9136V44.5692L15.0256 38.588C15.195 38.42 15.3958 38.2871 15.6167 38.1969C15.8375 38.1067 16.074 38.061 16.3125 38.0624H43.5C44.8882 38.1114 46.2394 37.6089 47.2583 36.6648C48.2772 35.7206 48.8809 34.4115 48.9375 33.0236V15.9136C48.8809 14.5257 48.2772 13.2166 47.2583 12.2724C46.2394 11.3283 44.8882 10.8258 43.5 10.8749H14.5Z" fill="#FFFBFB"/>
<path d="M29 27.1873C30.5015 27.1873 31.7188 25.97 31.7188 24.4685C31.7188 22.967 30.5015 21.7498 29 21.7498C27.4985 21.7498 26.2812 22.967 26.2812 24.4685C26.2812 25.97 27.4985 27.1873 29 27.1873Z" fill="#FFFBFB"/>
<path d="M38.9688 27.1873C40.4703 27.1873 41.6875 25.97 41.6875 24.4685C41.6875 22.967 40.4703 21.7498 38.9688 21.7498C37.4672 21.7498 36.25 22.967 36.25 24.4685C36.25 25.97 37.4672 27.1873 38.9688 27.1873Z" fill="#FFFBFB"/>
<path d="M19.0312 27.1873C20.5328 27.1873 21.75 25.97 21.75 24.4685C21.75 22.967 20.5328 21.7498 19.0312 21.7498C17.5297 21.7498 16.3125 22.967 16.3125 24.4685C16.3125 25.97 17.5297 27.1873 19.0312 27.1873Z" fill="#FFFBFB"/>
</svg>
