<svg width="61" height="45" viewBox="0 0 61 45" fill="none" xmlns="http://www.w3.org/2000/svg">
<path d="M59.6072 22.54H48.5973C48.4986 22.5398 48.4008 22.559 48.3096 22.5967C48.2183 22.6343 48.1354 22.6896 48.0656 22.7594L46.6519 24.1716L37.6133 15.1346C39.7156 15.0203 42.016 14.2342 44.2707 12.1944C44.3886 12.0533 44.4516 11.8744 44.4479 11.6906C44.4442 11.5068 44.3742 11.3306 44.2508 11.1944C44.1274 11.0581 43.9589 10.9711 43.7763 10.9494C43.5938 10.9277 43.4096 10.9727 43.2576 11.0762C40.7409 13.3613 38.18 13.8519 35.9969 13.6112C35.8848 13.5685 35.7642 13.5534 35.645 13.567C32.5692 13.1099 30.3237 11.2559 30.1606 11.1219C30.0157 11.0015 29.8314 10.9391 29.6432 10.9466C29.4549 10.9542 29.2762 11.0313 29.1415 11.163L26.8274 13.4786C25.08 15.2275 22.0331 15.2321 20.2766 13.4786L19.7799 12.9835L28.0415 4.72494C29.0594 3.70141 30.2703 2.89 31.6039 2.33771C32.9376 1.78541 34.3676 1.50321 35.8111 1.50744H59.6072C59.8011 1.49872 59.9842 1.41554 60.1184 1.27521C60.2525 1.13489 60.3274 0.948235 60.3274 0.754102C60.3274 0.559968 60.2525 0.373313 60.1184 0.23299C59.9842 0.0926663 59.8011 0.0094852 59.6072 0.000761749H35.8096C35.4581 0.000761749 35.1088 0.0154885 34.7614 0.0449416C34.6812 0.016351 34.5968 0.0014172 34.5116 0.000761749H1.38139C1.27961 -0.0038164 1.17796 0.0122776 1.08257 0.0480716C0.987179 0.0838657 0.900033 0.138617 0.82639 0.209022C0.752747 0.279427 0.694134 0.364025 0.654089 0.457708C0.614045 0.551392 0.5934 0.652219 0.5934 0.754102C0.5934 0.855985 0.614045 0.956812 0.654089 1.0505C0.694134 1.14418 0.752747 1.22878 0.82639 1.29918C0.900033 1.36959 0.987179 1.42434 1.08257 1.46013C1.17796 1.49593 1.27961 1.51202 1.38139 1.50744H29.8499C28.7927 2.08249 27.824 2.80698 26.9736 3.65854L18.1803 12.4549C18.0402 12.597 17.9614 12.7885 17.961 12.9881C17.961 13.0872 17.9807 13.1854 18.0188 13.2769C18.057 13.3684 18.1129 13.4515 18.1834 13.5213L19.2102 14.5481C19.7801 15.1187 20.4569 15.5714 21.2019 15.8802C21.9469 16.1891 22.7455 16.3481 23.552 16.3481C24.3585 16.3481 25.157 16.1891 25.902 15.8802C26.647 15.5714 27.3239 15.1187 27.8938 14.5481L29.7478 12.6925C30.6954 13.3537 32.7627 14.6014 35.3556 15.0158L48.3307 27.9939C48.7116 28.3753 48.9256 28.8923 48.9256 29.4313C48.9256 29.9703 48.7116 30.4873 48.3307 30.8687C47.9838 31.2131 47.5247 31.4214 47.037 31.4558C46.5494 31.4902 46.0656 31.3483 45.6738 31.056C45.6113 30.9829 45.5474 30.9113 45.4788 30.8428L40.9877 26.3532C40.9178 26.283 40.8347 26.2273 40.7432 26.1893C40.6517 26.1513 40.5536 26.1317 40.4545 26.1317C40.3554 26.1317 40.2573 26.1513 40.1658 26.1893C40.0743 26.2273 39.9912 26.283 39.9213 26.3532L39.9091 26.3654L39.8954 26.3776C39.7558 26.52 39.6777 26.7114 39.6777 26.9108C39.6777 27.1102 39.7558 27.3016 39.8954 27.444L44.388 31.9351C44.4551 32.0021 44.5251 32.0661 44.5967 32.1255C44.8915 32.516 45.0353 32.9998 45.0018 33.4878C44.9683 33.9759 44.7598 34.4355 44.4145 34.7821C44.0692 35.1287 43.6104 35.339 43.1224 35.3743C42.6345 35.4096 42.1502 35.2676 41.7586 34.9743C41.6961 34.9012 41.6321 34.822 41.562 34.758L37.0725 30.2684C36.9301 30.1289 36.7387 30.0507 36.5393 30.0507C36.3399 30.0507 36.1485 30.1289 36.0061 30.2684C36.0024 30.2729 35.9983 30.2769 35.9939 30.2806L35.9802 30.2943C35.8406 30.4367 35.7624 30.6281 35.7624 30.8275C35.7624 31.0269 35.8406 31.2183 35.9802 31.3607L40.4697 35.8503C40.5398 35.9204 40.6129 35.9859 40.6861 36.0484C40.9795 36.4398 41.1218 36.924 41.0868 37.412C41.0517 37.9 40.8417 38.3589 40.4953 38.7043C40.1489 39.0498 39.6894 39.2586 39.2013 39.2924C38.7133 39.3261 38.2294 39.1825 37.8388 38.888C37.7778 38.8164 37.7138 38.7448 37.6453 38.6763L36.4098 37.4393C36.3556 37.3853 36.2934 37.3401 36.2255 37.3052L33.6889 34.7687C33.8303 34.2138 33.8346 33.6328 33.7016 33.0759C33.5685 32.519 33.3021 32.0027 32.9253 31.5716C32.5484 31.1404 32.0724 30.8074 31.5383 30.6011C31.0041 30.3948 30.4278 30.3214 29.859 30.3873C29.9211 29.8581 29.8625 29.3218 29.6877 28.8185C29.5128 28.3153 29.2263 27.8581 28.8496 27.4814C28.4729 27.1047 28.0158 26.8182 27.5125 26.6434C27.0092 26.4685 26.4729 26.41 25.9438 26.472C26.0053 25.943 25.9464 25.4068 25.7715 24.9037C25.5966 24.4006 25.3102 23.9436 24.9337 23.5668C24.5524 23.1969 24.0933 22.9167 23.5899 22.7467C23.0865 22.5767 22.5515 22.5212 22.024 22.5842C22.1155 21.8524 21.976 21.1102 21.6249 20.4616C21.2739 19.8129 20.7289 19.2902 20.0662 18.9666C19.4034 18.6429 18.6561 18.5345 17.9287 18.6565C17.2014 18.7785 16.5303 19.1248 16.0094 19.647L13.3754 22.2826L12.2709 21.1781C12.1288 21.0379 11.9373 20.9591 11.7377 20.9587H0.720216C0.526278 20.9674 0.343176 21.0506 0.209022 21.1909C0.0748687 21.3312 0 21.5179 0 21.712C0 21.9062 0.0748687 22.0928 0.209022 22.2332C0.343176 22.3735 0.526278 22.4567 0.720216 22.4654H11.4254L12.309 23.349L11.5214 24.1381C11.0026 24.6574 10.6581 25.3251 10.5356 26.0488C10.4131 26.7725 10.5186 27.5164 10.8376 28.1774C11.1566 28.8385 11.6732 29.384 12.316 29.7384C12.9587 30.0929 13.6958 30.2387 14.4251 30.1557C14.3622 30.6851 14.4201 31.2218 14.5946 31.7256C14.7691 32.2293 15.0556 32.6869 15.4325 33.0639C15.8093 33.4409 16.2668 33.7276 16.7705 33.9023C17.2742 34.077 17.8109 34.1352 18.3403 34.0725C18.28 34.6016 18.3399 35.1375 18.5155 35.6402C18.6911 36.143 18.9779 36.5996 19.3546 36.9761C19.7312 37.3526 20.1879 37.6392 20.6907 37.8146C21.1936 37.99 21.7295 38.0497 22.2586 37.9892C22.1748 38.7189 22.3202 39.4567 22.6745 40.1001C23.0289 40.7435 23.5746 41.2607 24.2361 41.58C24.8976 41.8992 25.6421 42.0048 26.3663 41.8819C27.0904 41.7591 27.7585 41.414 28.2777 40.8944L29.0653 40.1068L32.6378 43.6853C33.1566 44.2059 33.8247 44.5518 34.5493 44.6752C35.2738 44.7985 36.0188 44.6932 36.6807 44.3737C37.3426 44.0542 37.8885 43.5365 38.2427 42.8925C38.5968 42.2485 38.7416 41.5102 38.6569 40.7801C39.1862 40.8416 39.7226 40.7826 40.2259 40.6074C40.7292 40.4322 41.1864 40.1454 41.5631 39.7685C41.9399 39.3916 42.2265 38.9344 42.4015 38.431C42.5765 37.9276 42.6353 37.3912 42.5736 36.8619C43.1028 36.9239 43.6392 36.8653 44.1425 36.6905C44.6458 36.5156 45.103 36.2292 45.4799 35.8525C45.8567 35.4758 46.1433 35.0187 46.3184 34.5154C46.4934 34.0122 46.5522 33.4758 46.4904 32.9466C47.2202 33.0308 47.9582 32.8857 48.6019 32.5315C49.2455 32.1773 49.763 31.6315 50.0825 30.9699C50.402 30.3083 50.5077 29.5637 50.3849 28.8394C50.262 28.115 49.9168 27.4468 49.3971 26.9275L47.7106 25.2365L48.9035 24.0452H59.6072C59.8068 24.0452 59.9982 23.9659 60.1393 23.8248C60.2805 23.6836 60.3597 23.4922 60.3597 23.2926C60.3597 23.093 60.2805 22.9016 60.1393 22.7605C59.9982 22.6193 59.8068 22.54 59.6072 22.54ZM12.5847 28.0792C12.3958 27.8906 12.2458 27.6666 12.1435 27.4199C12.0412 27.1733 11.9885 26.9089 11.9885 26.6419C11.9885 26.3749 12.0412 26.1105 12.1435 25.8638C12.2458 25.6172 12.3958 25.3931 12.5847 25.2045L17.0758 20.7134C17.4402 20.352 17.9279 20.1419 18.4409 20.1252C18.9538 20.1085 19.4541 20.2865 19.8412 20.6235C20.2283 20.9605 20.4736 21.4314 20.5278 21.9418C20.582 22.4522 20.4411 22.9641 20.1334 23.3749C20.0618 23.4358 19.9917 23.4983 19.9247 23.5653L15.4336 28.0549C15.3665 28.1234 15.3026 28.1935 15.2416 28.2666C14.8506 28.5611 14.3664 28.7043 13.8781 28.6698C13.3899 28.6354 12.9305 28.4257 12.5847 28.0792ZM16.5 31.996C16.1539 31.6496 15.9447 31.1898 15.9108 30.7013C15.8769 30.2128 16.0207 29.7285 16.3156 29.3376C16.3872 29.2767 16.4588 29.2127 16.5259 29.1457L21.0231 24.6546C21.0911 24.5855 21.1566 24.5139 21.2196 24.4398C21.6109 24.1461 22.095 24.0036 22.583 24.0383C23.071 24.0731 23.53 24.2829 23.8757 24.6291C24.2213 24.9754 24.4304 25.4347 24.4644 25.9228C24.4984 26.4108 24.3551 26.8947 24.0608 27.2855C23.9877 27.348 23.9085 27.412 23.846 27.4805L19.3473 31.9716C19.2772 32.0402 19.2117 32.1133 19.1492 32.188C18.7584 32.48 18.2754 32.6214 17.7888 32.5862C17.3022 32.5509 16.8446 32.3414 16.5 31.996ZM20.4137 35.9158C20.0681 35.5702 19.8588 35.1116 19.8241 34.6241C19.7894 34.1367 19.9317 33.653 20.2248 33.262C20.2979 33.1995 20.3695 33.1355 20.4396 33.067L24.9292 28.5759C24.9992 28.5058 25.0632 28.4342 25.1272 28.3596C25.5189 28.0675 26.0028 27.9265 26.49 27.9624C26.9773 27.9982 27.4353 28.2086 27.78 28.5548C28.1247 28.901 28.3331 29.3599 28.3669 29.8473C28.4006 30.3347 28.2575 30.8179 27.9638 31.2084C27.8922 31.2693 27.8222 31.3318 27.7551 31.4003L23.264 35.8899C23.1955 35.9585 23.1315 36.0301 23.0706 36.1017C22.68 36.3969 22.1957 36.5408 21.7073 36.5066C21.2189 36.4724 20.7593 36.2626 20.4137 35.9158ZM27.2052 39.8326C26.8182 40.2027 26.3033 40.4093 25.7678 40.4093C25.2323 40.4093 24.7174 40.2027 24.3305 39.8326C23.9844 39.4861 23.7751 39.0263 23.7413 38.5378C23.7074 38.0493 23.8512 37.5651 24.1461 37.1742C24.2177 37.1148 24.2878 37.0508 24.3548 36.9837L28.8444 32.4926C28.913 32.4256 28.9769 32.354 29.0394 32.2809C29.4506 31.9729 29.9632 31.832 30.474 31.8867C30.9849 31.9414 31.4561 32.1875 31.7928 32.5756C32.1295 32.9636 32.3067 33.4648 32.2888 33.9783C32.2709 34.4917 32.0592 34.9793 31.6963 35.343L27.2052 39.8326ZM36.5789 42.6189C36.3906 42.8083 36.1667 42.9585 35.9202 43.061C35.6737 43.1635 35.4093 43.2163 35.1423 43.2163C34.8753 43.2163 34.6109 43.1635 34.3644 43.061C34.1178 42.9585 33.894 42.8083 33.7057 42.6189L33.0689 41.9837L30.1302 39.045L32.7657 36.4094C32.8373 36.3363 32.9059 36.2571 32.9699 36.1839L36.5621 39.7655C36.6292 39.8326 36.6992 39.895 36.7708 39.956C37.0661 40.3481 37.2093 40.8339 37.174 41.3234C37.1387 41.813 36.9273 42.2732 36.5789 42.6189Z" fill="white"/>
</svg>
