<svg width="56" height="58" viewBox="0 0 56 58" fill="none" xmlns="http://www.w3.org/2000/svg">
<path d="M28 12.6C20.1 12.6 13.8 19 13.7 26.9C13.7 32.5 16.9 37.3 21.7 39.7V44.5V46.5V51.8H23.2999L25.1 57.1H31L31.2 56.4L32.7 51.8H34.2999V50.8V46.5V44.5V39.7C39 37.4 42.1999 32.5 42.2999 26.9C42.1999 19 35.9 12.6 28 12.6ZM23.7 49.7V46.4H32.2999V49.7H23.7ZM29.5 55H26.5L25.4 51.7H30.5999L29.5 55ZM32.9 38.1L32.2999 38.4V44.5H29V34.8C30 34.4 30.7999 33.4 30.7999 32.2C30.7999 30.7 29.6 29.4 28 29.4C26.5 29.4 25.2 30.6 25.2 32.2C25.2 33.4 25.9 34.4 27 34.8V44.5H23.7V38.4L23.1 38.1C18.8 36.2 15.6999 31.9 15.7999 26.9C15.7999 23.5 17.1999 20.5 19.4 18.2C21.5999 16 24.6999 14.6 28.0999 14.6C31.4999 14.6 34.5 16 36.7999 18.2C39 20.4 40.4 23.5 40.4 26.9C40.3 31.9 37.2 36.2 32.9 38.1ZM28 32.9C27.6 32.9 27.2 32.6 27.2 32.1C27.2 31.7 27.5 31.3 28 31.3C28.4 31.3 28.7999 31.6 28.7999 32.1C28.7999 32.6 28.4 32.9 28 32.9Z" fill="white"/>
<path d="M29 0H27V7H29V0Z" fill="white"/>
<path d="M56 27H49V29H56V27Z" fill="white"/>
<path d="M7 27H0V29H7V27Z" fill="white"/>
<path d="M47.093 7.52875L42.1433 12.4785L43.5575 13.8927L48.5072 8.94295L47.093 7.52875Z" fill="white"/>
<path d="M8.93703 7.50652L7.52283 8.92072L12.4725 13.8704L13.8867 12.4562L8.93703 7.50652Z" fill="white"/>
</svg>
