<svg width="43" height="50" viewBox="0 0 43 50" fill="none" xmlns="http://www.w3.org/2000/svg">
<path fill-rule="evenodd" clip-rule="evenodd" d="M35.0789 18.1818C35.0789 24.5341 30.7484 29.8545 24.8947 31.3705V43.1818H31.6842C32.31 43.1818 32.8158 43.6909 32.8158 44.3182C32.8158 44.9466 32.31 45.4545 31.6842 45.4545H11.3158C10.69 45.4545 10.1842 44.9466 10.1842 44.3182C10.1842 43.6909 10.69 43.1818 11.3158 43.1818H18.1053V31.3705C12.2516 29.8545 7.92105 24.5341 7.92105 18.1818C3.54637 18.1818 0 14.6205 0 10.2273V7.95455C0 7.32727 0.505816 6.81818 1.13158 6.81818H7.92105V5.68182C7.92105 3.79886 6.40134 2.27273 4.52632 2.27273C3.90055 2.27273 3.39474 1.76364 3.39474 1.13636C3.39474 0.509091 3.90055 0 4.52632 0H38.4737C39.0994 0 39.6053 0.509091 39.6053 1.13636C39.6053 1.76364 39.0994 2.27273 38.4737 2.27273C36.5987 2.27273 35.0789 3.79886 35.0789 5.68182V6.81818H41.8684C42.4942 6.81818 43 7.32727 43 7.95455V10.2273C43 14.6205 39.4536 18.1818 35.0789 18.1818ZM20.3684 43.1818H22.6316V31.7602C22.2582 31.792 21.8825 31.8182 21.5 31.8182C21.1175 31.8182 20.7418 31.792 20.3684 31.7602V43.1818ZM2.26316 9.09091V10.2273C2.26316 13.3659 4.79563 15.9091 7.92105 15.9091V9.09091H2.26316ZM9.02774 2.27273C9.74289 3.225 10.1842 4.39659 10.1842 5.68182V18.1818C10.1842 24.458 15.2503 29.5455 21.5 29.5455C27.7486 29.5455 32.8158 24.458 32.8158 18.1818V5.68182C32.8158 4.39659 33.2571 3.225 33.9723 2.27273H9.02774ZM40.7368 9.09091H35.0789V15.9091C38.2044 15.9091 40.7368 13.3659 40.7368 10.2273V9.09091ZM7.92105 47.7273H35.0789C35.7047 47.7273 36.2105 48.2364 36.2105 48.8636C36.2105 49.492 35.7047 50 35.0789 50H7.92105C7.29529 50 6.78947 49.492 6.78947 48.8636C6.78947 48.2364 7.29529 47.7273 7.92105 47.7273Z" fill="white"/>
</svg>
