<svg width="55" height="51" viewBox="0 0 55 51" fill="none" xmlns="http://www.w3.org/2000/svg">
<path d="M54.0833 7.28571C54.5893 7.28571 55 6.87771 55 6.375V4.55357C55 2.04182 52.9448 0 50.4166 0H48.5833C48.0773 0 47.6666 0.408 47.6666 0.910714C47.6666 1.41343 48.0773 1.82143 48.5833 1.82143H50.4166C51.9328 1.82143 53.1666 3.04725 53.1666 4.55357V6.375C53.1666 6.87771 53.5773 7.28571 54.0833 7.28571Z" fill="white"/>
<path d="M0 46.4464V44.625C0 44.1223 0.410667 43.7143 0.916667 43.7143H39.4167C39.9227 43.7143 40.3333 44.1223 40.3333 44.625V46.4464C40.3333 47.9528 41.5672 49.1786 43.0833 49.1786C43.5893 49.1786 44 49.5866 44 50.0893C44 50.592 43.5893 51 43.0833 51H4.58333C2.05517 51 0 48.9582 0 46.4464ZM38.5 46.4464V45.5357H1.83333V46.4464C1.83333 47.9528 3.06717 49.1786 4.58333 49.1786H39.4185C38.8428 48.4172 38.5 47.4719 38.5 46.4464Z" fill="white"/>
<path d="M38.5201 29.1611C38.1626 29.5181 38.1626 30.0936 38.5201 30.4506L41.1124 33.0261C41.4699 33.3813 42.0511 33.3813 42.4086 33.0261C42.7661 32.671 42.7661 32.0936 42.4086 31.7384L39.8162 29.1611C39.4569 28.8041 38.8776 28.8041 38.5201 29.1611Z" fill="white"/>
<path d="M29.3333 34.6071C21.2465 34.6071 14.6666 28.07 14.6666 20.0357C14.6666 12.0014 21.2465 5.46429 29.3333 5.46429C32.3766 5.46429 35.2953 6.38229 37.7758 8.11993C38.1901 8.40772 38.2891 8.97782 37.9976 9.38764C37.7061 9.79929 37.1323 9.89947 36.7198 9.60622C34.551 8.08714 31.9971 7.28572 29.3333 7.28572C22.2566 7.28572 16.5 13.0068 16.5 20.0357C16.5 27.0646 22.2566 32.7857 29.3333 32.7857C36.41 32.7857 42.1666 27.0646 42.1666 20.0357C42.1666 18.7261 41.9686 17.4365 41.5763 16.2016C41.4241 15.7208 41.6918 15.2089 42.1758 15.0596C42.6598 14.912 43.1731 15.1743 43.3253 15.6534C43.7726 17.0668 44 18.5421 44 20.0357C44 28.07 37.4201 34.6071 29.3333 34.6071Z" fill="white"/>
<path d="M43.9999 32.7857C44.4693 32.7857 44.9386 32.9642 45.2961 33.3194L52.6294 40.6051C53.3463 41.3173 53.3463 42.4684 52.6294 43.1806C52.2719 43.5358 51.8026 43.7143 51.3333 43.7143C50.8639 43.7143 50.3946 43.5358 50.0371 43.1806L42.7038 35.8949C41.9869 35.1827 41.9869 34.0316 42.7038 33.3194C43.0613 32.9642 43.5306 32.7857 43.9999 32.7857ZM43.9999 30.9643C43.0209 30.9643 42.1006 31.3431 41.4076 32.0316C40.7146 32.7201 40.3333 33.6345 40.3333 34.6071C40.3333 35.5798 40.7146 36.4941 41.4076 37.1826L48.7409 44.4684C49.4339 45.1569 50.3542 45.5357 51.3333 45.5357C52.3123 45.5357 53.2326 45.1569 53.9256 44.4684C54.6186 43.7799 54.9999 42.8655 54.9999 41.8929C54.9999 40.9202 54.6186 40.0059 53.9256 39.3174L46.5922 32.0316C45.8993 31.3431 44.9789 30.9643 43.9999 30.9643Z" fill="white"/>
<path d="M28.4167 25.5C28.4093 25.5 28.402 25.5 28.3947 25.5C28.1288 25.4927 27.8813 25.3743 27.7108 25.1721L23.1275 19.7079C22.8048 19.3199 22.858 18.7461 23.2448 18.4237C23.6353 18.1032 24.211 18.156 24.5373 18.5403L28.4478 23.205L41.4902 9.40221C41.8348 9.03064 42.4142 9.00878 42.7845 9.34575C43.1567 9.68635 43.1823 10.2619 42.8395 10.6335L29.0913 25.2049C28.9172 25.3925 28.6752 25.5 28.4167 25.5Z" fill="white"/>
<path d="M50.4166 1.82143C50.9226 1.82143 51.3333 1.41343 51.3333 0.910714C51.3333 0.408 50.9226 0 50.4166 0H13.75C11.2218 0 9.16663 2.04182 9.16663 4.55357V40.9821C9.16663 41.4849 9.57729 41.8929 10.0833 41.8929C10.5893 41.8929 11 41.4849 11 40.9821V4.55357C11 3.04725 12.2338 1.82143 13.75 1.82143H46.7518C46.1761 2.58279 45.8333 3.52993 45.8333 4.55357V28.2321C45.8333 28.7349 46.244 29.1429 46.75 29.1429C47.256 29.1429 47.6666 28.7349 47.6666 28.2321V4.55357C47.6666 3.04725 48.9005 1.82143 50.4166 1.82143Z" fill="white"/>
<path d="M43.0833 49.1786H39.875V51H43.0833C45.6115 51 47.6667 48.9582 47.6667 46.4464C47.6667 45.9437 47.256 45.5357 46.75 45.5357C46.244 45.5357 45.8333 45.9437 45.8333 46.4464C45.8333 47.9527 44.5995 49.1786 43.0833 49.1786Z" fill="white"/>
</svg>
