<svg width="50" height="50" viewBox="0 0 50 50" fill="none" xmlns="http://www.w3.org/2000/svg">
<path d="M13.0453 0V3.53201C8.69686 3.53201 4.34843 3.53201 0 3.53201V50H35.4898V44.6606C35.8851 44.6962 36.2683 44.771 36.6728 44.771C44.0185 44.771 50 38.8182 50 31.5076C50 24.197 44.0185 18.2488 36.6728 18.2488C36.2693 18.2488 35.8843 18.3148 35.4898 18.35V3.53208C31.1599 3.53208 26.8299 3.53208 22.5 3.53208V7.18589e-05L13.0453 0ZM15.4113 2.35467H20.134V5.88668H24.8429V8.24135H10.647V5.88668H15.4113V2.35467ZM2.36599 5.88668H8.28096V10.596H27.2089V5.88668H33.1238V18.773C28.6493 20.0142 25.1029 23.4908 23.8494 27.9433H15.6932V30.298H23.4057C23.3692 30.6974 23.3457 31.0988 23.3457 31.5075C23.3457 34.3441 24.2543 36.9687 25.7856 39.128H15.6932V41.4827H27.9205C29.3993 42.7696 31.1833 43.6908 33.1238 44.2329V47.6453H2.36599V5.88668ZM36.6728 20.6034C42.7399 20.6034 47.634 25.4695 47.634 31.5075C47.634 37.5456 42.7399 42.4163 36.6728 42.4163C30.6058 42.4163 25.7116 37.5456 25.7116 31.5075C25.7116 25.4695 30.6058 20.6034 36.6728 20.6034ZM35.4898 24.1354V33.5541H44.9538V31.1994H37.8558V24.1354H35.4898Z" fill="white"/>
<path d="M9.46396 3.53198V5.88666H14.7505V3.53198H9.46396Z" fill="white"/>
<path d="M5.91498 25.5886C5.91498 27.9433 5.91498 30.298 5.91498 32.6526C8.38571 32.6526 10.8564 32.6526 13.3272 32.6526C13.3272 30.298 13.3272 27.9433 13.3272 25.5886C10.8564 25.5886 8.38571 25.5886 5.91498 25.5886ZM8.28097 27.9433C9.17437 27.9433 10.0678 27.9433 10.9612 27.9433C10.9612 28.7282 10.9612 29.5131 10.9612 30.298C10.0678 30.298 9.17437 30.298 8.28097 30.298C8.28097 29.5131 8.28097 28.7282 8.28097 27.9433Z" fill="white"/>
<path d="M5.91498 14.4041C5.91498 16.7587 5.91498 19.1134 5.91498 21.4681C8.38571 21.4681 10.8564 21.4681 13.3272 21.4681C13.3272 19.1134 13.3272 16.7587 13.3272 14.4041C10.8564 14.4041 8.38571 14.4041 5.91498 14.4041ZM8.28097 16.7587C9.17437 16.7587 10.0678 16.7587 10.9612 16.7587C10.9612 17.5436 10.9612 18.3285 10.9612 19.1134C10.0678 19.1134 9.17437 19.1134 8.28097 19.1134C8.28097 18.3285 8.28097 17.5436 8.28097 16.7587Z" fill="white"/>
<path d="M5.91498 36.7734C5.91498 39.1281 5.91498 41.4828 5.91498 43.8375C8.38571 43.8375 10.8564 43.8375 13.3272 43.8375C13.3272 41.4828 13.3272 39.1281 13.3272 36.7734C10.8564 36.7734 8.38571 36.7734 5.91498 36.7734ZM8.28097 39.1281C9.17437 39.1281 10.0678 39.1281 10.9612 39.1281C10.9612 39.913 10.9612 40.6979 10.9612 41.4828C10.0678 41.4828 9.17437 41.4828 8.28097 41.4828C8.28097 40.6979 8.28097 39.913 8.28097 39.1281Z" fill="white"/>
<path d="M15.6931 16.7585C15.6931 17.5434 15.6931 18.3283 15.6931 19.1132C20.4251 19.1132 25.1571 19.1132 29.8891 19.1132C29.8891 18.3283 29.8891 17.5434 29.8891 16.7585C25.1571 16.7585 20.4251 16.7585 15.6931 16.7585Z" fill="white"/>
</svg>
