<svg width="56" height="56" viewBox="0 0 56 56" fill="none" xmlns="http://www.w3.org/2000/svg">
<path d="M54.7583 53.5652H4.1635L22.1565 35.5478L30.0452 43.4365C30.1635 43.5531 30.3044 43.6442 30.4591 43.7043C30.7555 43.8261 31.088 43.8261 31.3844 43.7043C31.5392 43.6442 31.68 43.5531 31.7983 43.4365L53.0296 22.1565V30.0209C53.0296 30.3437 53.1578 30.6534 53.3861 30.8817C53.6144 31.11 53.9241 31.2383 54.247 31.2383C54.5698 31.2383 54.8795 31.11 55.1078 30.8817C55.3361 30.6534 55.4644 30.3437 55.4644 30.0209V19.2104C55.4644 18.8876 55.3361 18.5779 55.1078 18.3496C54.8795 18.1213 54.5698 17.993 54.247 17.993H43.4609C43.138 17.993 42.8284 18.1213 42.6001 18.3496C42.3718 18.5779 42.2435 18.8876 42.2435 19.2104C42.2435 19.5333 42.3718 19.843 42.6001 20.0713C42.8284 20.2996 43.138 20.4278 43.4609 20.4278H51.3252L30.8974 40.8557L23.0087 32.967C22.8955 32.8529 22.7609 32.7623 22.6125 32.7005C22.4642 32.6387 22.3051 32.6069 22.1444 32.6069C21.9837 32.6069 21.8245 32.6387 21.6762 32.7005C21.5278 32.7623 21.3932 32.8529 21.28 32.967L2.4348 51.8365V1.21739C2.4348 0.894519 2.30654 0.584871 2.07824 0.356566C1.84993 0.128261 1.54029 0 1.21741 0C0.894541 0 0.584893 0.128261 0.356588 0.356566C0.128282 0.584871 2.19946e-05 0.894519 2.19946e-05 1.21739V54.7826C-0.00188624 55.1003 0.12044 55.4061 0.340891 55.6348C0.454813 55.739 0.586841 55.8215 0.730457 55.8783C0.882796 55.9516 1.0485 55.993 1.21741 56H54.7826C55.1055 56 55.4151 55.8717 55.6434 55.6434C55.8717 55.4151 56 55.1055 56 54.7826C56 54.4597 55.8717 54.1501 55.6434 53.9218C55.4151 53.6935 55.1055 53.5652 54.7826 53.5652H54.7583Z" fill="white"/>
</svg>
