<svg width="49" height="49" viewBox="0 0 49 49" fill="none" xmlns="http://www.w3.org/2000/svg">
<g clip-path="url(#clip0_222_802)">
<path d="M42.1591 3.70942C41.7041 3.2913 41.108 3.06026 40.4901 3.06247H28.2401C28.0988 2.36748 27.7706 1.72422 27.2907 1.202C26.9304 0.817831 26.4943 0.512633 26.01 0.305724C25.5257 0.0988144 25.0037 -0.00530009 24.477 -3.03317e-05C23.5874 -0.0147491 22.7209 0.284018 22.0294 0.843936C21.3379 1.40385 20.8655 2.18922 20.6948 3.06247H8.42188C7.81271 3.06247 7.22849 3.30446 6.79774 3.73521C6.36699 4.16596 6.125 4.75018 6.125 5.35935V46.7031C6.125 47.3123 6.36699 47.8965 6.79774 48.3272C7.22849 48.758 7.81271 49 8.42188 49H40.5781C40.8806 49.003 41.1807 48.9457 41.4607 48.8314C41.7408 48.717 41.9952 48.548 42.2091 48.3341C42.423 48.1202 42.5921 47.8658 42.7064 47.5857C42.8208 47.3056 42.8781 47.0056 42.875 46.7031V5.35935C42.8762 5.04979 42.8132 4.74334 42.69 4.45936C42.5668 4.17538 42.386 3.92003 42.1591 3.70942ZM21.3839 4.59372C21.587 4.59372 21.7817 4.51306 21.9253 4.36947C22.0689 4.22589 22.1495 4.03115 22.1495 3.8281C22.1448 3.52255 22.2019 3.2192 22.3176 2.93635C22.4333 2.6535 22.605 2.39701 22.8225 2.18236C23.04 1.96772 23.2988 1.79936 23.5831 1.68745C23.8675 1.57554 24.1716 1.52239 24.477 1.53122C24.7958 1.52218 25.1129 1.58099 25.4072 1.70374C25.7016 1.82649 25.9665 2.01039 26.1844 2.24325C26.5774 2.67766 26.7956 3.24226 26.7969 3.8281C26.7969 4.03115 26.8775 4.22589 27.0211 4.36947C27.1647 4.51306 27.3594 4.59372 27.5625 4.59372H32.1562V9.18747H16.8438V4.59372H21.3839ZM41.3438 46.7031C41.3438 46.9062 41.2631 47.1009 41.1195 47.2445C40.9759 47.3881 40.7812 47.4687 40.5781 47.4687H8.42188C8.21882 47.4687 8.02408 47.3881 7.8805 47.2445C7.73691 47.1009 7.65625 46.9062 7.65625 46.7031V5.35935C7.65625 5.15629 7.73691 4.96155 7.8805 4.81797C8.02408 4.67438 8.21882 4.59372 8.42188 4.59372H15.3125V9.9531C15.3125 10.1562 15.3932 10.3509 15.5367 10.4945C15.6803 10.6381 15.8751 10.7187 16.0781 10.7187H32.9219C33.1249 10.7187 33.3197 10.6381 33.4633 10.4945C33.6068 10.3509 33.6875 10.1562 33.6875 9.9531V4.59372H40.4901C40.7201 4.58999 40.943 4.67341 41.1141 4.82724C41.1877 4.89472 41.2462 4.97701 41.2858 5.06872C41.3254 5.16043 41.3452 5.25947 41.3438 5.35935V46.7031Z" fill="white"/>
<path d="M37.5156 7.65625H35.9844C35.7813 7.65625 35.5866 7.73691 35.443 7.8805C35.2994 8.02408 35.2188 8.21882 35.2188 8.42188C35.2188 8.62493 35.2994 8.81967 35.443 8.96325C35.5866 9.10684 35.7813 9.1875 35.9844 9.1875H36.75V42.875H12.25V9.1875H13.0156C13.2187 9.1875 13.4134 9.10684 13.557 8.96325C13.7006 8.81967 13.7812 8.62493 13.7812 8.42188C13.7812 8.21882 13.7006 8.02408 13.557 7.8805C13.4134 7.73691 13.2187 7.65625 13.0156 7.65625H11.4844C11.2813 7.65625 11.0866 7.73691 10.943 7.8805C10.7994 8.02408 10.7188 8.21882 10.7188 8.42188V43.6406C10.7188 43.8437 10.7994 44.0384 10.943 44.182C11.0866 44.3256 11.2813 44.4062 11.4844 44.4062H37.5156C37.7187 44.4062 37.9134 44.3256 38.057 44.182C38.2006 44.0384 38.2812 43.8437 38.2812 43.6406V8.42188C38.2812 8.21882 38.2006 8.02408 38.057 7.8805C37.9134 7.73691 37.7187 7.65625 37.5156 7.65625Z" fill="white"/>
<path d="M25.2656 18.375H33.6875C33.8906 18.375 34.0853 18.2943 34.2289 18.1508C34.3725 18.0072 34.4531 17.8124 34.4531 17.6094C34.4531 17.4063 34.3725 17.2116 34.2289 17.068C34.0853 16.9244 33.8906 16.8438 33.6875 16.8438H25.2656C25.0626 16.8438 24.8678 16.9244 24.7242 17.068C24.5807 17.2116 24.5 17.4063 24.5 17.6094C24.5 17.8124 24.5807 18.0072 24.7242 18.1508C24.8678 18.2943 25.0626 18.375 25.2656 18.375Z" fill="white"/>
<path d="M25.2656 22.9688H31.3906C31.5937 22.9688 31.7884 22.8881 31.932 22.7445C32.0756 22.6009 32.1562 22.4062 32.1562 22.2031C32.1562 22.0001 32.0756 21.8053 31.932 21.6617C31.7884 21.5182 31.5937 21.4375 31.3906 21.4375H25.2656C25.0626 21.4375 24.8678 21.5182 24.7242 21.6617C24.5807 21.8053 24.5 22.0001 24.5 22.2031C24.5 22.4062 24.5807 22.6009 24.7242 22.7445C24.8678 22.8881 25.0626 22.9688 25.2656 22.9688Z" fill="white"/>
<path d="M17.6094 22.8922C17.7529 23.0345 17.947 23.1144 18.1491 23.1142H18.1836C18.2932 23.1126 18.4012 23.0876 18.5002 23.0407C18.5993 22.9938 18.6871 22.9262 18.7578 22.8424L22.7888 17.9922C22.8588 17.916 22.9126 17.8265 22.947 17.729C22.9814 17.6315 22.9957 17.528 22.989 17.4248C22.9823 17.3216 22.9548 17.2208 22.9081 17.1286C22.8614 17.0363 22.7966 16.9545 22.7174 16.888C22.6382 16.8215 22.5464 16.7717 22.4474 16.7416C22.3485 16.7116 22.2445 16.7019 22.1417 16.7132C22.0389 16.7244 21.9394 16.7564 21.8493 16.8071C21.7592 16.8578 21.6803 16.9263 21.6174 17.0083L18.0994 21.2193L15.8523 18.976C15.7064 18.8443 15.5155 18.7737 15.319 18.7789C15.1225 18.7841 14.9356 18.8646 14.7968 19.0038C14.6581 19.1431 14.5782 19.3303 14.5737 19.5268C14.5693 19.7233 14.6405 19.914 14.7727 20.0594L17.6094 22.8922Z" fill="white"/>
<path d="M33.6875 29.0938H25.2656C25.0626 29.0938 24.8678 29.0131 24.7242 28.8695C24.5807 28.7259 24.5 28.5312 24.5 28.3281C24.5 28.1251 24.5807 27.9303 24.7242 27.7867C24.8678 27.6432 25.0626 27.5625 25.2656 27.5625H33.6875C33.8906 27.5625 34.0853 27.6432 34.2289 27.7867C34.3725 27.9303 34.4531 28.1251 34.4531 28.3281C34.4531 28.5312 34.3725 28.7259 34.2289 28.8695C34.0853 29.0131 33.8906 29.0938 33.6875 29.0938Z" fill="white"/>
<path d="M31.3906 33.6875H25.2656C25.0626 33.6875 24.8678 33.6068 24.7242 33.4633C24.5807 33.3197 24.5 33.1249 24.5 32.9219C24.5 32.7188 24.5807 32.5241 24.7242 32.3805C24.8678 32.2369 25.0626 32.1562 25.2656 32.1562H31.3906C31.5937 32.1562 31.7884 32.2369 31.932 32.3805C32.0756 32.5241 32.1562 32.7188 32.1562 32.9219C32.1562 33.1249 32.0756 33.3197 31.932 33.4633C31.7884 33.6068 31.5937 33.6875 31.3906 33.6875Z" fill="white"/>
<path d="M18.1491 33.833C17.947 33.8331 17.7529 33.7533 17.6094 33.6109L14.7727 30.7743C14.6958 30.7048 14.6337 30.6204 14.5903 30.5261C14.547 30.4319 14.5232 30.3299 14.5205 30.2262C14.5177 30.1225 14.5361 30.0194 14.5744 29.923C14.6128 29.8266 14.6703 29.7391 14.7435 29.6656C14.8167 29.5921 14.9041 29.5343 15.0003 29.4956C15.0965 29.457 15.1996 29.4382 15.3033 29.4406C15.407 29.443 15.5091 29.4664 15.6035 29.5094C15.6979 29.5524 15.7825 29.6142 15.8523 29.6909L18.0994 31.9342L21.6174 27.7233C21.7484 27.5679 21.9357 27.471 22.1382 27.4538C22.3406 27.4365 22.5416 27.5004 22.697 27.6314C22.8523 27.7624 22.9492 27.9497 22.9665 28.1521C22.9837 28.3546 22.9198 28.5556 22.7888 28.7109L18.7578 33.5612C18.6893 33.6426 18.6045 33.7088 18.5089 33.7556C18.4133 33.8024 18.3091 33.8287 18.2027 33.833H18.1491Z" fill="white"/>
</g>
<defs>
<clipPath id="clip0_222_802">
<rect width="49" height="49" fill="white"/>
</clipPath>
</defs>
</svg>
