<svg width="52" height="52" viewBox="0 0 52 52" fill="none" xmlns="http://www.w3.org/2000/svg">
<path fill-rule="evenodd" clip-rule="evenodd" d="M27.1206 37.0127C27.2896 37.1817 27.5115 37.2667 27.7333 37.2667C27.9552 37.2667 28.1771 37.1817 28.3461 37.0127L30.3333 35.0255L32.3206 37.0127C32.4896 37.1817 32.7115 37.2667 32.9333 37.2667C33.1552 37.2667 33.3771 37.1817 33.5461 37.0127C33.8849 36.6739 33.8849 36.1261 33.5461 35.7873L31.5588 33.8L33.5461 31.8127C33.8849 31.4739 33.8849 30.9261 33.5461 30.5873C33.2072 30.2484 32.6595 30.2484 32.3206 30.5873L30.3333 32.5745L28.3461 30.5873C28.0072 30.2484 27.4595 30.2484 27.1206 30.5873C26.7817 30.9261 26.7817 31.4739 27.1206 31.8127L29.1079 33.8L27.1206 35.7873C26.7817 36.1261 26.7817 36.6739 27.1206 37.0127ZM46.5461 36.6539C46.2072 36.3151 45.6595 36.3151 45.3206 36.6539L43.3333 38.6412L41.3461 36.6539C41.0072 36.3151 40.4595 36.3151 40.1206 36.6539C39.7817 36.9928 39.7817 37.5405 40.1206 37.8794L42.1079 39.8667L40.1206 41.8539C39.7817 42.1928 39.7817 42.7405 40.1206 43.0794C40.2896 43.2484 40.5115 43.3333 40.7333 43.3333C40.9552 43.3333 41.1771 43.2484 41.3461 43.0794L43.3333 41.0921L45.3206 43.0794C45.4896 43.2484 45.7115 43.3333 45.9333 43.3333C46.1552 43.3333 46.3771 43.2484 46.5461 43.0794C46.8849 42.7405 46.8849 42.1928 46.5461 41.8539L44.5588 39.8667L46.5461 37.8794C46.8849 37.5405 46.8849 36.9928 46.5461 36.6539ZM8.9206 18.8127C9.0896 18.9817 9.31147 19.0667 9.53333 19.0667C9.7552 19.0667 9.97707 18.9817 10.1461 18.8127L12.1333 16.8255L14.1206 18.8127C14.2896 18.9817 14.5115 19.0667 14.7333 19.0667C14.9552 19.0667 15.1771 18.9817 15.3461 18.8127C15.6849 18.4739 15.6849 17.9261 15.3461 17.5873L13.3588 15.6L15.3461 13.6127C15.6849 13.2739 15.6849 12.7261 15.3461 12.3873C15.0072 12.0484 14.4595 12.0484 14.1206 12.3873L12.1333 14.3745L10.1461 12.3873C9.8072 12.0484 9.25947 12.0484 8.9206 12.3873C8.58173 12.7261 8.58173 13.2739 8.9206 13.6127L10.9079 15.6L8.9206 17.5873C8.58173 17.9261 8.58173 18.4739 8.9206 18.8127ZM20.5461 40.1206C20.2072 39.7817 19.6595 39.7817 19.3206 40.1206L17.3333 42.1079L15.3461 40.1206C15.0072 39.7817 14.4595 39.7817 14.1206 40.1206C13.7817 40.4595 13.7817 41.0072 14.1206 41.3461L16.1079 43.3333L14.1206 45.3206C13.7817 45.6595 13.7817 46.2072 14.1206 46.5461C14.2896 46.7151 14.5115 46.8 14.7333 46.8C14.9552 46.8 15.1771 46.7151 15.3461 46.5461L17.3333 44.5588L19.3206 46.5461C19.4896 46.7151 19.7115 46.8 19.9333 46.8C20.1552 46.8 20.3771 46.7151 20.5461 46.5461C20.8849 46.2072 20.8849 45.6595 20.5461 45.3206L18.5588 43.3333L20.5461 41.3461C20.8849 41.0072 20.8849 40.4595 20.5461 40.1206ZM37.2667 12.1333C38.7001 12.1333 39.8667 10.9668 39.8667 9.53333C39.8667 8.09987 38.7001 6.93333 37.2667 6.93333C35.8332 6.93333 34.6667 8.09987 34.6667 9.53333C34.6667 10.9668 35.8332 12.1333 37.2667 12.1333ZM37.2667 13.8667C34.8773 13.8667 32.9333 11.9227 32.9333 9.53333C32.9333 7.14393 34.8773 5.2 37.2667 5.2C39.6561 5.2 41.6 7.14393 41.6 9.53333C41.6 11.9227 39.6561 13.8667 37.2667 13.8667ZM52 3.46667V48.5333C52 50.4452 50.4452 52 48.5333 52H9.53333C9.05493 52 8.66667 51.6126 8.66667 51.1333V30.3333C8.66667 26.0321 12.1663 22.5333 16.4667 22.5333C20.7671 22.5333 24.2667 26.0321 24.2667 30.3333V35.5333C24.2667 38.8778 26.988 41.6 30.3333 41.6C33.6787 41.6 36.4 38.8778 36.4 35.5333V18.5588L32.6794 22.2794C32.3405 22.6183 31.7928 22.6183 31.4539 22.2794C31.1151 21.9405 31.1151 21.3928 31.4539 21.0539L36.6539 15.8548C36.7337 15.7742 36.829 15.7109 36.9356 15.6667C37.1471 15.5792 37.3863 15.5792 37.5977 15.6667C37.7043 15.7109 37.7997 15.7742 37.8803 15.8548L43.0794 21.0539C43.4183 21.3928 43.4183 21.9405 43.0794 22.2794C42.9104 22.4484 42.6885 22.5333 42.4667 22.5333C42.2448 22.5333 42.0229 22.4484 41.8539 22.2794L38.1333 18.5588V35.5333C38.1333 39.8346 34.6337 43.3333 30.3333 43.3333C26.0329 43.3333 22.5333 39.8346 22.5333 35.5333V30.3333C22.5333 26.9889 19.812 24.2667 16.4667 24.2667C13.1213 24.2667 10.4 26.9889 10.4 30.3333V50.2667H48.5333C49.4893 50.2667 50.2667 49.4893 50.2667 48.5333V3.46667C50.2667 2.51073 49.4893 1.73333 48.5333 1.73333H3.46667C2.51073 1.73333 1.73333 2.51073 1.73333 3.46667V48.5333C1.73333 49.4893 2.51073 50.2667 3.46667 50.2667H6.06667C6.54507 50.2667 6.93333 50.6541 6.93333 51.1333C6.93333 51.6126 6.54507 52 6.06667 52H3.46667C1.5548 52 0 50.4452 0 48.5333V3.46667C0 1.5548 1.5548 0 3.46667 0H48.5333C50.4452 0 52 1.5548 52 3.46667Z" fill="white"/>
</svg>
