<svg width="48" height="48" viewBox="0 0 48 48" fill="none" xmlns="http://www.w3.org/2000/svg">
<g clip-path="url(#clip0_32_2640)">
<path d="M42 2C44.206 2 46 3.794 46 6V42C46 44.206 44.206 46 42 46H6C3.794 46 2 44.206 2 42V6C2 3.794 3.794 2 6 2H42ZM42 0H6C2.7 0 0 2.7 0 6V42C0 45.3 2.7 48 6 48H42C45.3 48 48 45.3 48 42V6C48 2.7 45.3 0 42 0Z" fill="white"/>
<path d="M24 8C32.822 8 40 15.178 40 24C40 32.822 32.822 40 24 40C15.178 40 8 32.822 8 24C8 15.178 15.178 8 24 8ZM24 6C14.059 6 6 14.059 6 24C6 33.941 14.059 42 24 42C33.94 42 42 33.941 42 24C42 14.059 33.94 6 24 6Z" fill="white"/>
<path d="M30 25H23V14C23 13.447 23.448 13 24 13C24.552 13 25 13.447 25 14V23H30C30.552 23 31 23.447 31 24C31 24.553 30.552 25 30 25Z" fill="white"/>
</g>
<defs>
<clipPath id="clip0_32_2640">
<rect width="48" height="48" fill="white"/>
</clipPath>
</defs>
</svg>
