<svg width="46" height="55" viewBox="0 0 46 55" fill="none" xmlns="http://www.w3.org/2000/svg">
<path d="M34.124 40.1601L40.1615 34.4576C40.6038 34.0392 40.6259 33.3567 40.2057 32.9163C39.7856 32.476 39.1 32.454 38.6577 32.8723L33.3942 37.8263L31.249 35.6025C30.8288 35.1621 30.1433 35.1621 29.7009 35.5805C29.2586 35.9988 29.2586 36.6813 29.6788 37.1217L32.5759 40.1161C32.7971 40.3363 33.0846 40.4464 33.3721 40.4464C33.6375 40.4464 33.9029 40.3583 34.124 40.1601Z" fill="white"/>
<path d="M45.8452 34.4356C45.7567 33.9071 45.6683 33.5328 45.5577 33.2686C44.0317 28.777 39.8519 25.7386 35.0529 25.7166H34.7212C29.9885 25.7606 25.8087 28.799 24.3048 33.2686C24.1942 33.5548 24.1058 33.9291 24.0173 34.4576C23.6856 36.3511 23.9067 38.2446 24.6365 39.9179C24.6365 39.94 24.6587 39.984 24.6808 40.006C24.7029 40.05 24.7029 40.0721 24.725 40.1161C25.3 41.3491 26.1183 42.7802 26.9144 44.1673C27.401 45.004 27.8875 45.8407 28.3077 46.6333C28.5952 47.1617 29.2587 47.3599 29.7894 47.0737C30.3202 46.7874 30.5192 46.1269 30.2317 45.5985C29.7894 44.7838 29.3029 43.9251 28.7942 43.0665C28.0423 41.7454 27.2462 40.3803 26.7154 39.2354C26.6933 39.1914 26.6712 39.1473 26.649 39.0813C26.074 37.7602 25.9192 36.285 26.1625 34.8319C26.1846 34.6777 26.2731 34.2374 26.3615 33.9512C27.5779 30.3403 30.9394 27.9183 34.7875 27.8743H35.0971C38.8788 27.8963 42.2404 30.3403 43.4788 33.9732C43.5673 34.2374 43.6558 34.6777 43.6779 34.8099C43.9433 36.285 43.7663 37.7382 43.1913 39.1033C43.1692 39.1473 43.1471 39.1914 43.1471 39.2354C42.6163 40.3803 41.8202 41.7454 41.0683 43.0665C40.5596 43.9251 40.0731 44.7838 39.6308 45.5985C39.3433 46.1269 39.5423 46.7874 40.0731 47.0737C40.2279 47.1617 40.4048 47.2058 40.5817 47.2058C40.9798 47.2058 41.3558 46.9856 41.5548 46.6333C41.975 45.8407 42.4615 45.004 42.9481 44.1673C43.7442 42.7802 44.5625 41.3711 45.1375 40.1161C45.1375 40.0941 45.1596 40.05 45.1817 40.028L45.226 39.94C45.9779 38.2446 46.1769 36.3291 45.8452 34.4356Z" fill="white"/>
<path d="M39.0336 48.4388H30.8288C30.3865 48.4388 29.9884 48.6369 29.7009 48.9672C29.4134 49.2974 29.3028 49.7378 29.3913 50.1561L29.7894 52.2258C29.9221 52.9083 30.5192 53.4147 31.2269 53.4147H31.6028C32.4211 54.4055 33.6375 55 34.9423 55C36.2471 55 37.4634 54.4055 38.2817 53.4147H38.6576C39.3653 53.4147 39.9625 52.9083 40.0951 52.2258L40.4932 50.1561C40.5817 49.7378 40.4711 49.2974 40.1836 48.9672C39.874 48.6369 39.4759 48.4388 39.0336 48.4388ZM38.0384 51.235H37.7067C37.3086 51.235 36.9548 51.4331 36.7557 51.7634C36.3798 52.4019 35.6721 52.7982 34.9201 52.7982C34.1682 52.7982 33.4605 52.4019 33.0846 51.7634C32.8855 51.4331 32.5317 51.235 32.1336 51.235H31.8461L31.7355 50.6185H38.1711L38.0384 51.235Z" fill="white"/>
<path d="M10.9471 12.9464C14.5298 12.9464 17.449 10.04 17.449 6.47318C17.449 2.90633 14.5298 0 10.9471 0C7.36442 0 4.44519 2.90633 4.44519 6.47318C4.44519 10.04 7.36442 12.9464 10.9471 12.9464ZM10.9471 2.17974C13.3135 2.17974 15.2596 4.11729 15.2596 6.47318C15.2596 8.82907 13.3135 10.7666 10.9471 10.7666C8.58076 10.7666 6.63461 8.82907 6.63461 6.47318C6.63461 4.11729 8.58076 2.17974 10.9471 2.17974Z" fill="white"/>
<path d="M18.7981 21.8195C18.2009 21.7754 17.6702 22.2378 17.6259 22.8323L16.6308 37.4079C16.6308 37.452 16.6086 37.496 16.6086 37.518L15.6798 51.6974C15.6356 52.3139 15.1048 52.8203 14.4856 52.8203H7.40865C6.7673 52.8203 6.25865 52.3359 6.21442 51.6974L5.28557 37.518C5.26346 37.0777 4.95384 36.6814 4.51154 36.5492C3.14038 36.1309 3.14038 36.1309 3.05192 34.6557L2.21154 19.6177V19.4636C3.45 19.0893 5.6173 18.4067 6.65673 18.0765L10.2173 21.3791C10.6375 21.7754 11.301 21.7754 11.7211 21.3791L15.3038 18.0324L25.8086 20.3883C25.9634 20.4323 26.1183 20.4323 26.2731 20.3883L36.1365 18.3847C36.7336 18.2746 37.1096 17.6801 36.999 17.1077C36.8884 16.5352 36.2913 16.1389 35.7163 16.249L26.074 18.2086L15.2375 15.7646C14.8836 15.6765 14.5077 15.7866 14.2423 16.0288L10.9471 19.0893L7.67403 16.0288C7.38653 15.7646 6.96634 15.6765 6.59038 15.7866C6.59038 15.7866 3.25096 16.8435 1.54808 17.3499C0.552884 17.6581 0 18.4067 0 19.4195C0 19.5076 0 19.6838 0 19.6838L0.840384 34.5236L0.862499 34.7658C1.01731 37.0116 1.39327 37.7162 3.14038 38.3547L4.025 51.8075C4.13557 53.5689 5.6173 54.956 7.40865 54.956H14.4856C16.2548 54.956 17.7365 53.5689 17.8692 51.8075L18.7981 37.7382C18.7981 37.6942 18.7981 37.6721 18.8202 37.6281L19.8375 22.9424C19.8596 22.3699 19.4173 21.8415 18.7981 21.8195Z" fill="white"/>
</svg>
